<mxfile host="Electron" modified="2023-05-07T06:36:29.050Z" agent="Mozilla/5.0 (Windows NT 10.0; Win64; x64) AppleWebKit/537.36 (KHTML, like Gecko) draw.io/21.2.8 Chrome/112.0.5615.165 Electron/24.2.0 Safari/537.36" etag="qFaKEek7KVcKqwm1V3sD" version="21.2.8" type="device">
  <diagram name="ページ1" id="WnprZI4OnLa5kW1OYaBW">
    <mxGraphModel dx="1500" dy="899" grid="1" gridSize="10" guides="1" tooltips="1" connect="1" arrows="1" fold="1" page="1" pageScale="1" pageWidth="827" pageHeight="1169" math="0" shadow="0">
      <root>
        <mxCell id="0" />
        <mxCell id="1" parent="0" />
        <mxCell id="L7LWtjoBWB61h3v9d-Bm-9" value="AWS Cloud" style="sketch=0;outlineConnect=0;gradientColor=none;html=1;whiteSpace=wrap;fontSize=12;fontStyle=0;shape=mxgraph.aws4.group;grIcon=mxgraph.aws4.group_aws_cloud;strokeColor=#AAB7B8;fillColor=none;verticalAlign=top;align=left;spacingLeft=30;fontColor=#AAB7B8;dashed=0;" vertex="1" parent="1">
          <mxGeometry x="200" y="300" width="1400" height="800" as="geometry" />
        </mxCell>
        <mxCell id="L7LWtjoBWB61h3v9d-Bm-2" value="VPC" style="points=[[0,0],[0.25,0],[0.5,0],[0.75,0],[1,0],[1,0.25],[1,0.5],[1,0.75],[1,1],[0.75,1],[0.5,1],[0.25,1],[0,1],[0,0.75],[0,0.5],[0,0.25]];outlineConnect=0;gradientColor=none;html=1;whiteSpace=wrap;fontSize=12;fontStyle=0;container=1;pointerEvents=0;collapsible=0;recursiveResize=0;shape=mxgraph.aws4.group;grIcon=mxgraph.aws4.group_vpc;strokeColor=#248814;fillColor=none;verticalAlign=top;align=left;spacingLeft=30;fontColor=#AAB7B8;dashed=0;" vertex="1" parent="1">
          <mxGeometry x="590" y="340" width="930" height="729" as="geometry" />
        </mxCell>
        <mxCell id="L7LWtjoBWB61h3v9d-Bm-17" value="Public subnet" style="points=[[0,0],[0.25,0],[0.5,0],[0.75,0],[1,0],[1,0.25],[1,0.5],[1,0.75],[1,1],[0.75,1],[0.5,1],[0.25,1],[0,1],[0,0.75],[0,0.5],[0,0.25]];outlineConnect=0;gradientColor=none;html=1;whiteSpace=wrap;fontSize=12;fontStyle=0;container=1;pointerEvents=0;collapsible=0;recursiveResize=0;shape=mxgraph.aws4.group;grIcon=mxgraph.aws4.group_security_group;grStroke=0;strokeColor=#248814;fillColor=#E9F3E6;verticalAlign=top;align=left;spacingLeft=30;fontColor=#248814;dashed=0;" vertex="1" parent="L7LWtjoBWB61h3v9d-Bm-2">
          <mxGeometry x="60" y="30" width="290" height="670" as="geometry" />
        </mxCell>
        <mxCell id="L7LWtjoBWB61h3v9d-Bm-25" value="踏み台用EC2" style="sketch=0;points=[[0,0,0],[0.25,0,0],[0.5,0,0],[0.75,0,0],[1,0,0],[0,1,0],[0.25,1,0],[0.5,1,0],[0.75,1,0],[1,1,0],[0,0.25,0],[0,0.5,0],[0,0.75,0],[1,0.25,0],[1,0.5,0],[1,0.75,0]];outlineConnect=0;fontColor=#232F3E;gradientColor=#F78E04;gradientDirection=north;fillColor=#D05C17;strokeColor=#ffffff;dashed=0;verticalLabelPosition=bottom;verticalAlign=top;align=center;html=1;fontSize=12;fontStyle=0;aspect=fixed;shape=mxgraph.aws4.resourceIcon;resIcon=mxgraph.aws4.ec2;" vertex="1" parent="L7LWtjoBWB61h3v9d-Bm-17">
          <mxGeometry x="101" y="40" width="78" height="78" as="geometry" />
        </mxCell>
        <mxCell id="L7LWtjoBWB61h3v9d-Bm-29" value="NAT Gateway" style="outlineConnect=0;dashed=0;verticalLabelPosition=bottom;verticalAlign=top;align=center;html=1;shape=mxgraph.aws3.vpc_nat_gateway;fillColor=#F58536;gradientColor=none;" vertex="1" parent="L7LWtjoBWB61h3v9d-Bm-17">
          <mxGeometry x="80" y="460" width="80" height="81" as="geometry" />
        </mxCell>
        <mxCell id="L7LWtjoBWB61h3v9d-Bm-18" value="Private subnet" style="points=[[0,0],[0.25,0],[0.5,0],[0.75,0],[1,0],[1,0.25],[1,0.5],[1,0.75],[1,1],[0.75,1],[0.5,1],[0.25,1],[0,1],[0,0.75],[0,0.5],[0,0.25]];outlineConnect=0;gradientColor=none;html=1;whiteSpace=wrap;fontSize=12;fontStyle=0;container=1;pointerEvents=0;collapsible=0;recursiveResize=0;shape=mxgraph.aws4.group;grIcon=mxgraph.aws4.group_security_group;grStroke=0;strokeColor=#147EBA;fillColor=#E6F2F8;verticalAlign=top;align=left;spacingLeft=30;fontColor=#147EBA;dashed=0;" vertex="1" parent="L7LWtjoBWB61h3v9d-Bm-2">
          <mxGeometry x="370" y="30" width="540" height="670" as="geometry" />
        </mxCell>
        <mxCell id="L7LWtjoBWB61h3v9d-Bm-3" value="RDS" style="sketch=0;points=[[0,0,0],[0.25,0,0],[0.5,0,0],[0.75,0,0],[1,0,0],[0,1,0],[0.25,1,0],[0.5,1,0],[0.75,1,0],[1,1,0],[0,0.25,0],[0,0.5,0],[0,0.75,0],[1,0.25,0],[1,0.5,0],[1,0.75,0]];outlineConnect=0;fontColor=#232F3E;gradientColor=#4D72F3;gradientDirection=north;fillColor=#3334B9;strokeColor=#ffffff;dashed=0;verticalLabelPosition=bottom;verticalAlign=top;align=center;html=1;fontSize=12;fontStyle=0;aspect=fixed;shape=mxgraph.aws4.resourceIcon;resIcon=mxgraph.aws4.rds;" vertex="1" parent="L7LWtjoBWB61h3v9d-Bm-18">
          <mxGeometry x="420" y="38" width="80" height="80" as="geometry" />
        </mxCell>
        <mxCell id="L7LWtjoBWB61h3v9d-Bm-41" style="edgeStyle=orthogonalEdgeStyle;rounded=0;orthogonalLoop=1;jettySize=auto;html=1;" edge="1" parent="L7LWtjoBWB61h3v9d-Bm-18" source="L7LWtjoBWB61h3v9d-Bm-4" target="L7LWtjoBWB61h3v9d-Bm-3">
          <mxGeometry relative="1" as="geometry" />
        </mxCell>
        <mxCell id="L7LWtjoBWB61h3v9d-Bm-4" value="" style="sketch=0;outlineConnect=0;fontColor=#232F3E;gradientColor=none;fillColor=#2E27AD;strokeColor=none;dashed=0;verticalLabelPosition=bottom;verticalAlign=top;align=center;html=1;fontSize=12;fontStyle=0;aspect=fixed;pointerEvents=1;shape=mxgraph.aws4.rds_proxy_alt;" vertex="1" parent="L7LWtjoBWB61h3v9d-Bm-18">
          <mxGeometry x="420" y="161" width="80" height="80" as="geometry" />
        </mxCell>
        <mxCell id="L7LWtjoBWB61h3v9d-Bm-45" style="edgeStyle=orthogonalEdgeStyle;rounded=0;orthogonalLoop=1;jettySize=auto;html=1;exitX=1;exitY=0.5;exitDx=0;exitDy=0;exitPerimeter=0;" edge="1" parent="L7LWtjoBWB61h3v9d-Bm-18" source="L7LWtjoBWB61h3v9d-Bm-36" target="L7LWtjoBWB61h3v9d-Bm-4">
          <mxGeometry relative="1" as="geometry" />
        </mxCell>
        <mxCell id="L7LWtjoBWB61h3v9d-Bm-36" value="店舗一覧取得" style="sketch=0;points=[[0,0,0],[0.25,0,0],[0.5,0,0],[0.75,0,0],[1,0,0],[0,1,0],[0.25,1,0],[0.5,1,0],[0.75,1,0],[1,1,0],[0,0.25,0],[0,0.5,0],[0,0.75,0],[1,0.25,0],[1,0.5,0],[1,0.75,0]];outlineConnect=0;fontColor=#232F3E;gradientColor=#F78E04;gradientDirection=north;fillColor=#D05C17;strokeColor=#ffffff;dashed=0;verticalLabelPosition=bottom;verticalAlign=top;align=center;html=1;fontSize=12;fontStyle=0;aspect=fixed;shape=mxgraph.aws4.resourceIcon;resIcon=mxgraph.aws4.lambda;" vertex="1" parent="L7LWtjoBWB61h3v9d-Bm-18">
          <mxGeometry x="50" y="161" width="78" height="78" as="geometry" />
        </mxCell>
        <mxCell id="L7LWtjoBWB61h3v9d-Bm-28" style="edgeStyle=orthogonalEdgeStyle;rounded=0;orthogonalLoop=1;jettySize=auto;html=1;exitX=1;exitY=0.5;exitDx=0;exitDy=0;exitPerimeter=0;" edge="1" parent="L7LWtjoBWB61h3v9d-Bm-2" source="L7LWtjoBWB61h3v9d-Bm-25" target="L7LWtjoBWB61h3v9d-Bm-3">
          <mxGeometry relative="1" as="geometry" />
        </mxCell>
        <mxCell id="L7LWtjoBWB61h3v9d-Bm-32" value="Internet Gateway" style="outlineConnect=0;dashed=0;verticalLabelPosition=bottom;verticalAlign=top;align=center;html=1;shape=mxgraph.aws3.internet_gateway;fillColor=#F58536;gradientColor=none;" vertex="1" parent="L7LWtjoBWB61h3v9d-Bm-2">
          <mxGeometry x="-40" y="490" width="80" height="81" as="geometry" />
        </mxCell>
        <mxCell id="L7LWtjoBWB61h3v9d-Bm-37" style="edgeStyle=orthogonalEdgeStyle;rounded=0;orthogonalLoop=1;jettySize=auto;html=1;exitX=0;exitY=0.5;exitDx=0;exitDy=0;exitPerimeter=0;entryX=1;entryY=0.5;entryDx=0;entryDy=0;entryPerimeter=0;" edge="1" parent="L7LWtjoBWB61h3v9d-Bm-2" source="L7LWtjoBWB61h3v9d-Bm-29" target="L7LWtjoBWB61h3v9d-Bm-32">
          <mxGeometry relative="1" as="geometry" />
        </mxCell>
        <mxCell id="L7LWtjoBWB61h3v9d-Bm-16" style="edgeStyle=orthogonalEdgeStyle;rounded=0;orthogonalLoop=1;jettySize=auto;html=1;exitX=0.5;exitY=0;exitDx=0;exitDy=0;exitPerimeter=0;entryX=0.5;entryY=1;entryDx=0;entryDy=0;entryPerimeter=0;" edge="1" parent="1" source="L7LWtjoBWB61h3v9d-Bm-6" target="L7LWtjoBWB61h3v9d-Bm-8">
          <mxGeometry relative="1" as="geometry" />
        </mxCell>
        <mxCell id="L7LWtjoBWB61h3v9d-Bm-20" style="edgeStyle=orthogonalEdgeStyle;rounded=0;orthogonalLoop=1;jettySize=auto;html=1;exitX=1;exitY=0.5;exitDx=0;exitDy=0;exitPerimeter=0;" edge="1" parent="1" source="L7LWtjoBWB61h3v9d-Bm-6" target="L7LWtjoBWB61h3v9d-Bm-19">
          <mxGeometry relative="1" as="geometry" />
        </mxCell>
        <mxCell id="L7LWtjoBWB61h3v9d-Bm-6" value="ユーザ画面" style="sketch=0;points=[[0,0,0],[0.25,0,0],[0.5,0,0],[0.75,0,0],[1,0,0],[0,1,0],[0.25,1,0],[0.5,1,0],[0.75,1,0],[1,1,0],[0,0.25,0],[0,0.5,0],[0,0.75,0],[1,0.25,0],[1,0.5,0],[1,0.75,0]];outlineConnect=0;fontColor=#232F3E;gradientColor=#945DF2;gradientDirection=north;fillColor=#5A30B5;strokeColor=#ffffff;dashed=0;verticalLabelPosition=bottom;verticalAlign=top;align=center;html=1;fontSize=12;fontStyle=0;aspect=fixed;shape=mxgraph.aws4.resourceIcon;resIcon=mxgraph.aws4.cloudfront;" vertex="1" parent="1">
          <mxGeometry x="250" y="529" width="81" height="81" as="geometry" />
        </mxCell>
        <mxCell id="L7LWtjoBWB61h3v9d-Bm-44" value="" style="edgeStyle=orthogonalEdgeStyle;rounded=0;orthogonalLoop=1;jettySize=auto;html=1;" edge="1" parent="1" source="L7LWtjoBWB61h3v9d-Bm-8" target="L7LWtjoBWB61h3v9d-Bm-6">
          <mxGeometry relative="1" as="geometry" />
        </mxCell>
        <mxCell id="L7LWtjoBWB61h3v9d-Bm-8" value="" style="sketch=0;points=[[0,0,0],[0.25,0,0],[0.5,0,0],[0.75,0,0],[1,0,0],[0,1,0],[0.25,1,0],[0.5,1,0],[0.75,1,0],[1,1,0],[0,0.25,0],[0,0.5,0],[0,0.75,0],[1,0.25,0],[1,0.5,0],[1,0.75,0]];outlineConnect=0;fontColor=#232F3E;gradientColor=#60A337;gradientDirection=north;fillColor=#277116;strokeColor=#ffffff;dashed=0;verticalLabelPosition=bottom;verticalAlign=top;align=center;html=1;fontSize=12;fontStyle=0;aspect=fixed;shape=mxgraph.aws4.resourceIcon;resIcon=mxgraph.aws4.s3;" vertex="1" parent="1">
          <mxGeometry x="251" y="390" width="80" height="80" as="geometry" />
        </mxCell>
        <mxCell id="L7LWtjoBWB61h3v9d-Bm-13" style="edgeStyle=orthogonalEdgeStyle;rounded=0;orthogonalLoop=1;jettySize=auto;html=1;entryX=0;entryY=0.5;entryDx=0;entryDy=0;entryPerimeter=0;" edge="1" parent="1" source="L7LWtjoBWB61h3v9d-Bm-11" target="L7LWtjoBWB61h3v9d-Bm-6">
          <mxGeometry relative="1" as="geometry" />
        </mxCell>
        <mxCell id="L7LWtjoBWB61h3v9d-Bm-11" value="Users" style="sketch=0;outlineConnect=0;fontColor=#232F3E;gradientColor=none;fillColor=#232F3D;strokeColor=none;dashed=0;verticalLabelPosition=bottom;verticalAlign=top;align=center;html=1;fontSize=12;fontStyle=0;aspect=fixed;pointerEvents=1;shape=mxgraph.aws4.users;" vertex="1" parent="1">
          <mxGeometry x="70" y="525.5" width="88" height="88" as="geometry" />
        </mxCell>
        <mxCell id="L7LWtjoBWB61h3v9d-Bm-42" style="edgeStyle=orthogonalEdgeStyle;rounded=0;orthogonalLoop=1;jettySize=auto;html=1;entryX=0;entryY=0.5;entryDx=0;entryDy=0;entryPerimeter=0;" edge="1" parent="1" source="L7LWtjoBWB61h3v9d-Bm-19" target="L7LWtjoBWB61h3v9d-Bm-36">
          <mxGeometry relative="1" as="geometry" />
        </mxCell>
        <mxCell id="L7LWtjoBWB61h3v9d-Bm-19" value="内部用APIGateway" style="sketch=0;points=[[0,0,0],[0.25,0,0],[0.5,0,0],[0.75,0,0],[1,0,0],[0,1,0],[0.25,1,0],[0.5,1,0],[0.75,1,0],[1,1,0],[0,0.25,0],[0,0.5,0],[0,0.75,0],[1,0.25,0],[1,0.5,0],[1,0.75,0]];outlineConnect=0;fontColor=#232F3E;gradientColor=#945DF2;gradientDirection=north;fillColor=#5A30B5;strokeColor=#ffffff;dashed=0;verticalLabelPosition=bottom;verticalAlign=top;align=center;html=1;fontSize=12;fontStyle=0;aspect=fixed;shape=mxgraph.aws4.resourceIcon;resIcon=mxgraph.aws4.api_gateway;" vertex="1" parent="1">
          <mxGeometry x="450" y="529" width="81" height="81" as="geometry" />
        </mxCell>
        <mxCell id="L7LWtjoBWB61h3v9d-Bm-27" style="edgeStyle=orthogonalEdgeStyle;rounded=0;orthogonalLoop=1;jettySize=auto;html=1;" edge="1" parent="1" source="L7LWtjoBWB61h3v9d-Bm-24" target="L7LWtjoBWB61h3v9d-Bm-25">
          <mxGeometry relative="1" as="geometry" />
        </mxCell>
        <mxCell id="L7LWtjoBWB61h3v9d-Bm-24" value="運用管理者" style="sketch=0;pointerEvents=1;shadow=0;dashed=0;html=1;strokeColor=none;labelPosition=center;verticalLabelPosition=bottom;verticalAlign=top;align=center;fillColor=#515151;shape=mxgraph.mscae.system_center.admin_console" vertex="1" parent="1">
          <mxGeometry x="750" y="210" width="80" height="66" as="geometry" />
        </mxCell>
        <mxCell id="L7LWtjoBWB61h3v9d-Bm-39" value="Twitter" style="dashed=0;outlineConnect=0;html=1;align=center;labelPosition=center;verticalLabelPosition=bottom;verticalAlign=top;shape=mxgraph.weblogos.twitter;fillColor=#1DA1F2;strokeColor=none" vertex="1" parent="1">
          <mxGeometry x="90" y="836" width="80" height="70" as="geometry" />
        </mxCell>
        <mxCell id="L7LWtjoBWB61h3v9d-Bm-40" style="edgeStyle=orthogonalEdgeStyle;rounded=0;orthogonalLoop=1;jettySize=auto;html=1;exitX=0;exitY=0.5;exitDx=0;exitDy=0;exitPerimeter=0;" edge="1" parent="1" source="L7LWtjoBWB61h3v9d-Bm-32" target="L7LWtjoBWB61h3v9d-Bm-39">
          <mxGeometry relative="1" as="geometry" />
        </mxCell>
        <mxCell id="L7LWtjoBWB61h3v9d-Bm-43" value="東京リージョン" style="points=[[0,0],[0.25,0],[0.5,0],[0.75,0],[1,0],[1,0.25],[1,0.5],[1,0.75],[1,1],[0.75,1],[0.5,1],[0.25,1],[0,1],[0,0.75],[0,0.5],[0,0.25]];outlineConnect=0;gradientColor=none;html=1;whiteSpace=wrap;fontSize=12;fontStyle=0;container=1;pointerEvents=0;collapsible=0;recursiveResize=0;shape=mxgraph.aws4.group;grIcon=mxgraph.aws4.group_region;strokeColor=#147EBA;fillColor=none;verticalAlign=top;align=left;spacingLeft=30;fontColor=#147EBA;dashed=1;" vertex="1" parent="1">
          <mxGeometry x="220" y="330" width="1340" height="750" as="geometry" />
        </mxCell>
      </root>
    </mxGraphModel>
  </diagram>
</mxfile>
